<svg xmlns="http://www.w3.org/2000/svg" width="85.669" height="20" viewBox="0 0 85.669 20"><defs><style>.a{fill:#dce1da;}</style></defs><g transform="translate(-117.354 -49.24)"><path class="a" d="M177.532,55.809c-.155.135-.147.31-.186.458q-1.625,6.114-3.24,12.23a.84.84,0,0,1-.982.754c-.362,0-.723,0-1.085,0a.758.758,0,0,1-.845-.672q-.828-3.525-1.646-7.052-1.283-5.489-2.566-10.978a2.126,2.126,0,0,1-.066-.516.677.677,0,0,1,.671-.707c.411-.019.823-.017,1.234,0,.389.015.615.242.718.688q.536,2.309,1.068,4.619,1.014,4.382,2.032,8.764a2.165,2.165,0,0,0,.093.236c.375-1.494.732-2.919,1.09-4.345q1.165-4.634,2.332-9.267a.779.779,0,0,1,.9-.7c.324,0,.648,0,.973,0a.672.672,0,0,1,.769.6q.956,3.82,1.91,7.64.745,2.969,1.5,5.935a.328.328,0,0,0,.121.231q1.583-6.8,3.162-13.6c.153-.66.332-.81.994-.811.262,0,.524,0,.785,0,.682,0,.99.4.836,1.08-.2.874-.405,1.745-.609,2.618l-3.585,15.377c-.164.7-.358.858-1.082.858h-.9c-.61,0-.827-.163-.985-.749q-1.1-4.073-2.189-8.147C178.353,58.847,177.944,57.338,177.532,55.809Z" transform="translate(-22.156 -0.032)"/><path class="a" d="M227.643,62.05c0-1.172-.01-2.344.007-3.516,0-.288-.082-.368-.357-.348a9.34,9.34,0,0,1-.972,0,.745.745,0,0,1-.769-.75c-.017-.348-.017-.7,0-1.047a.763.763,0,0,1,.776-.751c.336-.012.674-.018,1.01,0,.246.015.312-.066.311-.311-.01-1.708-.006-3.416-.006-5.124,0-.648.231-.881.871-.885.237,0,.474,0,.711,0,.813,0,1.025.209,1.025,1.009,0,1.633.008,3.267-.008,4.9,0,.317.06.421.4.416,1.5-.022,2.992-.017,4.488,0,.284,0,.378-.059.374-.363-.016-1.7-.008-3.391-.007-5.087,0-.586.275-.861.87-.871.3-.006.6,0,.9,0,.607,0,.837.228.838.832,0,1.67.015,3.342-.01,5.012-.006.4.109.5.491.479.522-.033,1.047-.011,1.57-.007a.772.772,0,0,1,.879.866c0,.3,0,.6,0,.9a.736.736,0,0,1-.8.787c-.611.007-1.222.01-1.833,0-.22,0-.3.05-.3.288.008,2.306,0,4.613.011,6.92,0,.909.406,1.28,1.314,1.286.349,0,.7,0,1.047,0a.742.742,0,0,1,.816.807c.006.349.011.7,0,1.047a.691.691,0,0,1-.641.707,14.079,14.079,0,0,1-2.2-.027,3.385,3.385,0,0,1-2.866-3.027,6.352,6.352,0,0,1-.079-1c0-2.207,0-4.414.008-6.621,0-.28-.052-.384-.362-.38-1.521.017-3.042.014-4.563,0-.26,0-.337.07-.336.333.01,2.269.006,4.538,0,6.807a2.034,2.034,0,0,0,.1.661.883.883,0,0,0,.876.68c.224,0,.449.019.673.012,1.445-.047,1.585.092,1.533,1.553,0,.124,0,.25-.012.373a.661.661,0,0,1-.632.633,12.846,12.846,0,0,1-2.2-.023,3.383,3.383,0,0,1-2.872-3.02,6.426,6.426,0,0,1-.075-1C227.646,64.145,227.643,63.1,227.643,62.05Z" transform="translate(-48.363 -0.036)"/><path class="a" d="M120.811,66.575a1.1,1.1,0,0,0,.555.07q3.984,0,7.968,0c.732,0,1.008.281,1.009,1.021,0,.249.007.5,0,.748a.765.765,0,0,1-.8.8q-5.7.006-11.409,0a.773.773,0,0,1-.768-.962,7.114,7.114,0,0,1,2.1-3.993,31.881,31.881,0,0,1,4.115-3.4,21.415,21.415,0,0,0,3.045-2.642,4.377,4.377,0,0,0,1.265-3.357,2.881,2.881,0,0,0-1.813-2.575,4.474,4.474,0,0,0-5.233.864,4.293,4.293,0,0,0-.574.826.784.784,0,0,1-1.218.338c-.227-.13-.449-.269-.67-.408a.788.788,0,0,1-.338-1.17,5.924,5.924,0,0,1,2.991-2.81,7.521,7.521,0,0,1,6.574.141,5.272,5.272,0,0,1,2.953,4.884,7.026,7.026,0,0,1-2.529,5.632,42.38,42.38,0,0,1-3.851,2.957,16.971,16.971,0,0,0-3.175,2.77C120.949,66.386,120.893,66.466,120.811,66.575Z" transform="translate(0 0)"/><path class="a" d="M149.509,49.324h5.011c.668,0,.923.255.928.925q0,.336,0,.673c0,.673-.257.93-.924.93q-3.553,0-7.106,0c-.311,0-.624.017-.934,0-.267-.019-.334.078-.331.336.014,1.047.016,2.094,0,3.141,0,.277.094.322.341.32,1.222-.012,2.444-.031,3.665,0a6.31,6.31,0,0,1,5.27,2.488,6.906,6.906,0,0,1,1.178,4.755,7,7,0,0,1-1.134,3.512,6.55,6.55,0,0,1-4.863,2.785,12.747,12.747,0,0,1-1.79.071.777.777,0,0,1-.847-.8,8.305,8.305,0,0,1,0-1.009.746.746,0,0,1,.83-.765,8.686,8.686,0,0,0,2.078-.181,3.849,3.849,0,0,0,3.056-3.6,5.438,5.438,0,0,0-.177-2.145,3.586,3.586,0,0,0-3.147-2.495,7.678,7.678,0,0,0-1.193-.068q-2.506.007-5.011,0c-.624,0-.879-.264-.879-.891q0-3.534,0-7.068c0-.676.238-.909.93-.909Z" transform="translate(-11.702 -0.038)"/><path class="a" d="M261.688,60.745c.573,0,1.146,0,1.72,0a.808.808,0,0,1,.89.875c.007.286.009.574,0,.86a.8.8,0,0,1-.837.816c-1.047.006-2.094,0-3.141,0a2.755,2.755,0,0,0-1.468.358.778.778,0,0,0-.171,1.314,4.141,4.141,0,0,0,1.648.92,13.667,13.667,0,0,1,2.639,1.212,3.814,3.814,0,0,1-1.2,7.107,6.637,6.637,0,0,1-1.445.153c-.985-.007-1.97,0-2.954,0a.776.776,0,0,1-.871-.874c0-.262,0-.524,0-.785,0-.652.255-.911.9-.912,1,0,1.995,0,2.992,0a4.153,4.153,0,0,0,1.073-.115,1.263,1.263,0,0,0,.586-2.086,4.233,4.233,0,0,0-1.351-.848c-.833-.392-1.737-.612-2.552-1.048a3.927,3.927,0,0,1-2.133-2.33c-.511-1.751.079-3.9,2.884-4.468A14.483,14.483,0,0,1,261.688,60.745Z" transform="translate(-61.911 -5.143)"/><path class="a" d="M214.906,65.006a3.971,3.971,0,0,0-2.321-3.719,5.607,5.607,0,0,0-3.5-.467,5.077,5.077,0,0,0-3.647,2.356.776.776,0,0,0,.2,1.15c.225.179.452.355.69.513a.748.748,0,0,0,1.134-.226,2.731,2.731,0,0,1,2.66-1.323,2.128,2.128,0,0,1,2.314,2.157c0,.271-.053.33-.338.267a7.52,7.52,0,0,0-4.859.411,4.473,4.473,0,0,0-2.349,5.733,4.007,4.007,0,0,0,4.011,2.494c1.709.01,3.417,0,5.125,0,.606,0,.885-.283.885-.894q0-2.132,0-4.264C214.914,67.8,214.941,66.4,214.906,65.006Zm-2.882,6.765c-.547-.019-1.1-.006-1.644-.006v0c-.548,0-1.1.026-1.643-.006a1.581,1.581,0,0,1-1.39-2.421,2.556,2.556,0,0,1,1.9-1.308,5.053,5.053,0,0,1,2.83.179.378.378,0,0,1,.311.42c-.015.934-.019,1.868,0,2.8C212.395,71.721,212.291,71.78,212.024,71.771Z" transform="translate(-39.002 -5.135)"/></g></svg>