<svg xmlns="http://www.w3.org/2000/svg" width="128.504" height="30" viewBox="0 0 128.504 30"><defs><style>.a{fill:#fff;}</style></defs><g transform="translate(-117.354 -49.24)"><path class="a" d="M182.84,59.059c-.232.2-.22.464-.279.687q-2.437,9.171-4.86,18.345a1.26,1.26,0,0,1-1.473,1.131c-.542,0-1.085,0-1.627,0a1.136,1.136,0,0,1-1.268-1.008q-1.242-5.288-2.468-10.579-1.925-8.234-3.849-16.467a3.19,3.19,0,0,1-.1-.775,1.016,1.016,0,0,1,1.007-1.061c.616-.028,1.235-.026,1.851,0,.584.022.922.362,1.077,1.032q.8,3.464,1.6,6.928,1.522,6.573,3.047,13.146a3.244,3.244,0,0,0,.139.354c.562-2.24,1.1-4.379,1.636-6.517q1.748-6.951,3.5-13.9a1.168,1.168,0,0,1,1.355-1.049c.486,0,.972,0,1.459,0a1.008,1.008,0,0,1,1.154.9q1.434,5.729,2.866,11.46,1.117,4.453,2.245,8.9a.492.492,0,0,0,.181.347q2.374-10.2,4.744-20.394c.23-.99.5-1.215,1.491-1.217.392,0,.785,0,1.178,0,1.024.007,1.485.593,1.254,1.62-.3,1.311-.608,2.618-.913,3.927L192.41,77.934c-.246,1.053-.537,1.287-1.623,1.287h-1.346c-.915,0-1.241-.244-1.478-1.123q-1.643-6.11-3.283-12.22C184.071,63.615,183.458,61.351,182.84,59.059Z" transform="translate(-8.453 -0.012)"/><path class="a" d="M228.694,68.415c0-1.758-.015-3.516.011-5.274.006-.431-.123-.552-.536-.522a14.013,14.013,0,0,1-1.458,0,1.117,1.117,0,0,1-1.153-1.126c-.025-.523-.025-1.048,0-1.571a1.145,1.145,0,0,1,1.164-1.127c.5-.018,1.011-.027,1.515,0,.369.022.469-.1.467-.466-.016-2.562-.009-5.124-.008-7.686,0-.971.346-1.322,1.307-1.328.355,0,.711,0,1.066,0,1.219,0,1.537.314,1.537,1.514,0,2.45.012,4.9-.012,7.35,0,.476.09.631.6.624,2.244-.032,4.488-.025,6.733,0,.425,0,.566-.088.562-.545-.024-2.543-.012-5.087-.011-7.63,0-.879.412-1.291,1.3-1.306.449-.008.9,0,1.346,0,.911,0,1.256.342,1.257,1.248,0,2.506.022,5.012-.015,7.518-.008.6.163.756.737.718.783-.05,1.571-.017,2.356-.011a1.159,1.159,0,0,1,1.318,1.3c0,.449.008.9,0,1.347a1.1,1.1,0,0,1-1.2,1.181c-.917.01-1.833.015-2.75,0-.33-.007-.457.075-.455.432.012,3.46,0,6.92.016,10.38.007,1.364.609,1.919,1.971,1.928.523,0,1.047-.007,1.571,0a1.113,1.113,0,0,1,1.224,1.21c.008.524.016,1.048,0,1.571a1.036,1.036,0,0,1-.962,1.06,21.12,21.12,0,0,1-3.305-.041,5.077,5.077,0,0,1-4.3-4.54,9.53,9.53,0,0,1-.119-1.506c.007-3.31,0-6.621.012-9.931,0-.42-.079-.576-.543-.571-2.282.026-4.564.021-6.845,0-.39,0-.506.1-.5.5.015,3.4.009,6.807.007,10.211a3.052,3.052,0,0,0,.155.992,1.325,1.325,0,0,0,1.314,1.02c.336.006.674.028,1.009.017,2.167-.071,2.377.138,2.3,2.329-.007.187.006.376-.018.56a.991.991,0,0,1-.948.95,19.27,19.27,0,0,1-3.3-.034,5.075,5.075,0,0,1-4.307-4.53,9.638,9.638,0,0,1-.112-1.506C228.7,71.557,228.694,69.986,228.694,68.415Z" transform="translate(-18.452 -0.014)"/><path class="a" d="M122.54,75.242a1.651,1.651,0,0,0,.833.1q5.976,0,11.951,0c1.1,0,1.511.421,1.513,1.531,0,.374.01.748,0,1.122a1.148,1.148,0,0,1-1.2,1.2q-8.557.009-17.114,0a1.159,1.159,0,0,1-1.152-1.443,10.671,10.671,0,0,1,3.156-5.99,47.823,47.823,0,0,1,6.173-5.1,32.123,32.123,0,0,0,4.568-3.963,6.566,6.566,0,0,0,1.9-5.036,4.321,4.321,0,0,0-2.719-3.862,6.711,6.711,0,0,0-7.849,1.3,6.439,6.439,0,0,0-.861,1.239,1.176,1.176,0,0,1-1.827.508c-.34-.2-.674-.4-1.005-.612a1.183,1.183,0,0,1-.507-1.754,8.886,8.886,0,0,1,4.486-4.215,11.281,11.281,0,0,1,9.861.212c2.983,1.469,4.292,4.078,4.429,7.326a10.539,10.539,0,0,1-3.794,8.448,63.57,63.57,0,0,1-5.777,4.435,25.457,25.457,0,0,0-4.762,4.155C122.746,74.959,122.662,75.079,122.54,75.242Z" transform="translate(0 0)"/><path class="a" d="M152.5,49.324h7.517c1,0,1.384.383,1.393,1.388q0,.5,0,1.009c-.007,1.01-.385,1.394-1.386,1.4q-5.33,0-10.659,0c-.467,0-.936.025-1.4-.007-.4-.028-.5.117-.5.5.021,1.57.024,3.141,0,4.712-.007.416.141.483.512.479,1.833-.017,3.666-.046,5.5,0,3.173.081,5.956,1.074,7.905,3.732a10.358,10.358,0,0,1,1.767,7.132,10.5,10.5,0,0,1-1.7,5.268,9.825,9.825,0,0,1-7.294,4.178,19.12,19.12,0,0,1-2.686.107,1.166,1.166,0,0,1-1.271-1.194,12.46,12.46,0,0,1,0-1.514,1.12,1.12,0,0,1,1.245-1.148,13.03,13.03,0,0,0,3.117-.271,5.773,5.773,0,0,0,4.583-5.406,8.156,8.156,0,0,0-.265-3.218,5.38,5.38,0,0,0-4.72-3.742,11.517,11.517,0,0,0-1.789-.1q-3.759.01-7.517,0c-.936,0-1.319-.4-1.319-1.337q0-5.3,0-10.6c0-1.014.357-1.363,1.394-1.364Z" transform="translate(-4.465 -0.014)"/><path class="a" d="M264.61,60.746c.86,0,1.719,0,2.58,0a1.211,1.211,0,0,1,1.335,1.313c.01.43.014.861,0,1.29a1.207,1.207,0,0,1-1.256,1.224c-1.57.009-3.14,0-4.711.006a4.133,4.133,0,0,0-2.2.537,1.167,1.167,0,0,0-.256,1.971,6.21,6.21,0,0,0,2.473,1.379,20.5,20.5,0,0,1,3.959,1.818,5.721,5.721,0,0,1-1.8,10.661,9.954,9.954,0,0,1-2.167.23c-1.477-.011-2.954,0-4.431,0a1.164,1.164,0,0,1-1.306-1.311c-.005-.393,0-.785,0-1.178,0-.978.383-1.366,1.346-1.369,1.5,0,2.992,0,4.487,0a6.229,6.229,0,0,0,1.61-.173,1.9,1.9,0,0,0,.878-3.129,6.35,6.35,0,0,0-2.027-1.272c-1.25-.588-2.605-.918-3.828-1.573a5.89,5.89,0,0,1-3.2-3.494c-.767-2.627.118-5.853,4.326-6.7A21.725,21.725,0,0,1,264.61,60.746Z" transform="translate(-23.621 -1.962)"/><path class="a" d="M220.06,67.146a5.957,5.957,0,0,0-3.481-5.579,8.411,8.411,0,0,0-5.245-.7,7.615,7.615,0,0,0-5.471,3.533,1.164,1.164,0,0,0,.3,1.725c.337.268.678.532,1.035.769a1.121,1.121,0,0,0,1.7-.339,4.1,4.1,0,0,1,3.99-1.984c2.164.1,3.463,1.3,3.47,3.236,0,.406-.079.494-.507.4a11.279,11.279,0,0,0-7.289.617,6.71,6.71,0,0,0-3.523,8.6c.86,2.346,3.086,3.724,6.017,3.742,2.563.015,5.125,0,7.687,0,.909,0,1.327-.424,1.328-1.341q0-3.2,0-6.4C220.071,71.334,220.112,69.239,220.06,67.146Zm-4.323,10.148c-.821-.028-1.644-.008-2.466-.008v-.007c-.822,0-1.646.039-2.465-.008a2.372,2.372,0,0,1-2.084-3.632,3.835,3.835,0,0,1,2.848-1.962,7.579,7.579,0,0,1,4.245.268.567.567,0,0,1,.467.63c-.023,1.4-.028,2.8,0,4.2C216.293,77.218,216.137,77.308,215.737,77.294Z" transform="translate(-14.881 -1.959)"/></g></svg>